<svg xmlns="http://www.w3.org/2000/svg" xmlns:xlink="http://www.w3.org/1999/xlink" width="710" height="44" viewBox="0 0 710 44"><defs><style>.a{fill:#262129;}.b{clip-path:url(#a);}.c{opacity:0.3;fill:url(#b);}</style><clipPath id="a"><rect class="a" width="710" height="44" rx="10" transform="translate(0 10.302)"/></clipPath><linearGradient id="b" y1="0.57" x2="1" y2="0.564" gradientUnits="objectBoundingBox"><stop offset="0" stop-color="#262129"/><stop offset="0.473" stop-color="#fff"/><stop offset="1" stop-color="#262129"/></linearGradient></defs><g class="b" transform="translate(0 -10.302)"><path class="c" d="M-1602.264-2416.976v0l3.9-6.752.256-.444-.256-.444-3.9-6.753-.256-.443h-8.261l-3.89-6.738-.256-.444h-8.1l-3.774-6.537-.256-.444h-8.43l-3.845-6.66-.257-.444h-8.822l-.256.444-3.774,6.537h-8.1l-.256.445-3.89,6.737h-7.864l-3.845-6.659-.256-.445h-8.261l-3.89-6.738-.256-.443h-8.1l-3.774-6.537-.256-.444h-8.822l-.256.444-3.845,6.66h-8.43l-.257.444-3.774,6.537h-8.1l-.256.445-3.89,6.737h-8.261l-.256.444-3.845,6.661h-7.876l-3.89-6.738-.256-.444h-8.1l-3.774-6.537-.256-.444h-8.431l-3.845-6.66-.256-.444h-8.822l-.256.444-3.774,6.537h-8.1l-.256.445-3.89,6.737h-7.864l-3.845-6.659-.256-.445h-8.261l-3.89-6.738-.256-.443h-8.1l-3.774-6.537-.256-.444h-8.822l-.256.444-3.845,6.66h-8.431l-.256.444-3.774,6.537h-8.1l-.256.445-3.89,6.737h-8.261l-.256.444-3.845,6.661h-7.876l-3.89-6.738-.256-.444h-8.1l-3.774-6.537-.256-.444h-8.431l-3.845-6.66-.256-.444h-8.822l-.256.444-3.774,6.537h-8.1l-.256.445-3.89,6.737h-7.864l-3.845-6.659-.256-.445h-8.261l-3.89-6.738-.256-.443h-8.1l-3.774-6.537-.256-.444h-8.822l-.256.444-3.845,6.66h-8.43l-.256.444-3.774,6.537h-8.1l-.256.445-3.89,6.737h-8.261l-.256.444-3.9,6.752-.256.444.256.444,3.9,6.753v0l-3.9,6.752-.256.444.256.444,3.9,6.752.256.444h8.822l.256-.444,3.851-6.67h7.506l3.851,6.67.256.444h8.822l.256-.444,3.845-6.66h8.431l.256-.444,3.851-6.67h7.506l3.851,6.67.256.444h8.425l3.845,6.66.256.444h8.822l.256-.444,3.851-6.67h7.506l3.851,6.67.256.444h8.431l3.845,6.66.256.444h8.822l.256-.444,3.851-6.669h7.506l3.851,6.669.256.444h8.822l.256-.444,3.845-6.66h8.437l.256-.444,3.851-6.67h7.506l3.851,6.67.256.444h8.822l.256-.444,3.845-6.66h8.431l.256-.444,3.851-6.67h7.506l3.851,6.67.256.444h8.425l3.845,6.66.256.444h8.822l.256-.444,3.851-6.67h7.506l3.851,6.67.256.444h8.431l3.845,6.66.256.444h8.822l.256-.444,3.851-6.669h7.506l3.851,6.669.256.444h8.822l.256-.444,3.845-6.66h8.437l.256-.444,3.851-6.67h7.506l3.851,6.67.257.444h8.822l.256-.444,3.845-6.66h8.431l.256-.444,3.851-6.67h7.506l3.851,6.67.256.444h8.425l3.845,6.66.256.444h8.822l.256-.444,3.851-6.67h7.506l3.851,6.67.256.444h8.431l3.845,6.66.256.444h8.822l.256-.444,3.851-6.669h7.506l3.851,6.669.256.444h8.822l.256-.444,3.9-6.752.256-.444-.256-.444Zm-8.51-13.938.008-.015h7.732l3.9,6.752-3.9,6.752h-7.79l-3.849-6.665-.021-.036.021-.036Zm-12.134-6.981.124-.215h7.343l3.866,6.7-.024.041-3.9,6.753-.008.014h-7.394l-.009-.014-3.832-6.637Zm-12.6,7.2h7.724l3.774,6.537.021.036-.021.036-3.849,6.665h-7.517l-3.9-6.752Zm-4.6,6.17h-7.517l-3.848-6.665-.021-.036.021-.036,3.774-6.537h7.712l3.772,6.533Zm4.735-20.563h7.8l3.671,6.359-.1.179-3.89,6.738h-7.6l-3.772-6.533Zm-12.532-7.1h7.8l3.9,6.752-3.766,6.522h-7.608l-3.89-6.737-.1-.179Zm-12.134,6.981h7.343l.124.216,3.832,6.637-3.832,6.637-.008.014h-7.394l-.008-.014-3.9-6.752-.024-.041Zm-12.408,7.182h7.732l.008.015,3.9,6.752.021.036-.021.036-3.849,6.665h-7.791l-3.9-6.752Zm-12.47-7.089.008-.015h7.732l3.9,6.753-3.9,6.752h-7.79l-3.849-6.666-.021-.036.021-.036Zm-12.134-6.982.124-.215h7.343l3.866,6.7-.024.042-3.9,6.752-.008.014h-7.394l-.008-.014-3.832-6.638Zm-16.357,13.73,3.772-6.533h7.712l3.774,6.537.021.036-.021.036-3.848,6.666h-7.517Zm3.056,7.094-3.9,6.752h-7.517l-3.849-6.665-.021-.036.021-.036,3.774-6.537h7.724Zm.837-28.02h7.8l3.671,6.359-.1.177-3.89,6.738h-7.608l-3.766-6.522Zm-12.532,7.1h7.8l3.893,6.742-3.772,6.532h-7.6l-3.89-6.737-.1-.179Zm-12.134,6.981h7.343l.124.216,3.832,6.637-3.832,6.637-.008.014h-7.394l-.008-.014-3.9-6.752-.024-.041Zm-12.408,7.182h7.732l.009.015,3.9,6.752.021.036-.021.036-3.849,6.665h-7.79l-3.9-6.752Zm-12.482,7.119.008-.015h7.732l3.9,6.752-3.9,6.752h-7.79l-3.849-6.665-.021-.036.021-.036Zm-12.134-6.981.124-.215h7.343l3.866,6.7-.024.041-3.9,6.753-.008.014h-7.394l-.008-.014-3.832-6.637Zm-12.6,7.2h7.724l3.774,6.537.021.036-.021.036-3.849,6.665h-7.517l-3.9-6.752Zm-4.6,6.17h-7.517l-3.848-6.665-.021-.036.021-.036,3.774-6.537h7.712l3.772,6.533Zm4.735-20.563h7.8l3.671,6.359-.1.179-3.89,6.738h-7.6l-3.772-6.533Zm-12.532-7.1h7.8l3.9,6.752-3.766,6.522h-7.608l-3.89-6.737-.1-.179Zm-12.135,6.981h7.343l.124.216,3.832,6.637-3.832,6.637-.008.014h-7.394l-.008-.014-3.9-6.752-.024-.041Zm-12.408,7.182h7.732l.008.015,3.9,6.752.021.036-.021.036-3.848,6.665h-7.791l-3.9-6.752Zm-12.47-7.089.008-.015h7.732l3.9,6.753-3.9,6.752h-7.79l-3.849-6.666-.021-.036.021-.036Zm-12.134-6.982.124-.215h7.343l3.866,6.7-.024.042-3.9,6.752-.008.014h-7.394l-.008-.014-3.832-6.638Zm-16.357,13.73,3.772-6.533h7.712l3.774,6.537.021.036-.021.036-3.849,6.666h-7.517Zm3.056,7.094-3.9,6.752h-7.517l-3.849-6.665-.021-.036.021-.036,3.774-6.537h7.724Zm.837-28.02h7.8l3.671,6.359-.1.177-3.89,6.738h-7.608l-3.766-6.522Zm-12.532,7.1h7.8l3.893,6.742-3.771,6.532h-7.6l-3.89-6.737-.1-.179Zm-12.134,6.981h7.343l.124.216,3.832,6.637-3.832,6.637-.008.014h-7.394l-.008-.014-3.9-6.752-.024-.041Zm-12.408,7.182h7.732l.008.015,3.9,6.752.021.036-.021.036-3.849,6.665h-7.79l-3.9-6.752Zm-12.482,7.119.008-.015h7.732l3.9,6.752-3.9,6.752h-7.79l-3.849-6.665-.021-.036.021-.036Zm-12.134-6.981.124-.215h7.343l3.866,6.7-.024.041-3.9,6.753-.008.014h-7.394l-.008-.014-3.832-6.637Zm-12.6,7.2h7.724l3.774,6.537.021.036-.021.036-3.849,6.665h-7.517l-3.9-6.752Zm-4.6,6.17h-7.517l-3.849-6.665-.021-.036.021-.036,3.774-6.537h7.713l3.771,6.533Zm4.735-20.563h7.8l3.671,6.359-.1.179-3.89,6.738h-7.6l-3.772-6.533Zm-12.532-7.1h7.8l3.9,6.752-3.766,6.522h-7.608l-3.89-6.737-.1-.179Zm-12.135,6.981h7.343l.124.216,3.832,6.637-3.832,6.637-.008.014h-7.394l-.008-.014-3.9-6.752-.024-.041Zm-12.408,7.182h7.732l.008.015,3.9,6.752.021.036-.021.036-3.848,6.665h-7.791l-3.9-6.752Zm-12.47-7.089.008-.015h7.732l3.9,6.753-3.9,6.752h-7.791l-3.848-6.666-.021-.036.021-.036Zm-12.134-6.982.124-.215h7.343l3.866,6.7-.024.042-3.9,6.752-.008.014h-7.394l-.008-.014-3.832-6.638Zm-16.357,13.73,3.772-6.533h7.712l3.774,6.537.021.036-.021.036-3.848,6.666h-7.517Zm3.056,7.094-3.9,6.752h-7.517l-3.849-6.665-.021-.036.021-.036,3.774-6.537h7.724Zm.837-28.02h7.8l3.671,6.359-.1.177-3.89,6.738h-7.608l-3.766-6.522Zm-12.532,7.1h7.8l3.893,6.742-3.772,6.532h-7.6l-3.89-6.737-.1-.179Zm-12.134,6.981h7.343l.124.216,3.832,6.637-3.832,6.637-.008.014h-7.394l-.008-.014-3.9-6.752-.024-.041Zm-16.306,13.935,3.9-6.753h7.732l.008.015,3.9,6.752.021.036-.021.036-3.849,6.665h-7.79Zm11.7,21.149h-7.8l-3.9-6.753,3.9-6.752h7.693l.048.083,3.9,6.752,0,.007Zm12.078-7.2-.048.083h-7.315l-.048-.083-3.9-6.752v0l3.849-6.666h7.51l3.849,6.666v0Zm12.464,7.2h-7.8l-3.709-6.426.141-.244,3.9-6.752.048-.083h7.419l3.9,6.752Zm12.532-7.1h-7.8l-3.9-6.752,3.9-6.752h7.419l.048.082,3.9,6.752.141.245Zm12.078-7.2-.048.082h-7.315l-.048-.082-3.9-6.752v0h0l3.848-6.666h7.51l3.849,6.666h0v0Zm12.464,7.2h-7.8l-3.847-6.662,0-.008,3.9-6.752.048-.082h7.693l3.9,6.752Zm12.526,7.1h-7.8l-3.9-6.753,3.9-6.752h7.693l.048.083,3.9,6.752,0,.007Zm12.078-7.2-.047.083h-7.315l-.048-.083-3.9-6.752v0l3.849-6.666h7.51l3.849,6.666v0Zm12.464,7.2h-7.8l-3.71-6.426.141-.244,3.9-6.752.048-.083h7.419l3.9,6.752Zm12.532,7.1h-7.8l-3.9-6.752,3.9-6.752h7.419l.047.083,3.9,6.752.141.245Zm12.078-7.2-.047.083h-7.315l-.048-.083-3.9-6.752v0l3.849-6.665h7.51l3.848,6.665v0Zm12.464,7.2h-7.8l-3.846-6.661,0-.008,3.9-6.752.048-.083h7.693l3.9,6.752Zm12.538-7.1h-7.8l-3.9-6.753,3.9-6.752h7.693l.048.083,3.9,6.752,0,.007Zm12.078-7.2-.048.083h-7.315l-.048-.083-3.9-6.752v0l3.848-6.666h7.51l3.849,6.666v0Zm12.464,7.2h-7.8l-3.709-6.426.141-.244,3.9-6.752.048-.083h7.419l3.9,6.752Zm12.532-7.1h-7.8l-3.9-6.752,3.9-6.752h7.419l.048.082,3.9,6.752.141.245Zm12.078-7.2-.048.082h-7.315l-.048-.082-3.9-6.752v0h0l3.849-6.666h7.51l3.848,6.666h0v0Zm12.464,7.2h-7.8l-3.846-6.662,0-.008,3.9-6.752.048-.082h7.693l3.9,6.752Zm12.526,7.1h-7.8l-3.9-6.753,3.9-6.752h7.693l.048.083,3.9,6.752,0,.007Zm12.078-7.2-.047.083h-7.315l-.048-.083-3.9-6.752v0l3.849-6.666h7.51l3.849,6.666v0Zm12.464,7.2h-7.8l-3.71-6.426.141-.244,3.9-6.752.048-.083h7.419l3.9,6.752Zm12.532,7.1h-7.8l-3.9-6.752,3.9-6.752h7.419l.047.083,3.9,6.752.141.245Zm12.078-7.2-.047.083h-7.315l-.048-.083-3.9-6.752v0l3.849-6.665h7.51l3.848,6.665v0Zm12.464,7.2h-7.8l-3.846-6.661,0-.008,3.9-6.752.048-.083h7.693l3.9,6.752Zm12.538-7.1h-7.8l-3.9-6.753,3.9-6.752h7.693l.048.083,3.9,6.752,0,.007Zm12.078-7.2-.048.083h-7.315l-.048-.083-3.9-6.752v0l3.848-6.666h7.51l3.849,6.666v0Zm12.464,7.2h-7.8l-3.709-6.426.141-.244,3.9-6.752.048-.083h7.419l3.9,6.752Zm12.532-7.1h-7.8l-3.9-6.752,3.9-6.752h7.419l.048.082,3.9,6.752.141.245Zm12.078-7.2-.048.082H-1697l-.048-.082-3.9-6.752v0h0l3.848-6.666h7.51l3.848,6.666h0v0Zm12.464,7.2h-7.8l-3.846-6.662,0-.008,3.9-6.752.048-.082h7.693l3.9,6.752Zm12.526,7.1h-7.8l-3.9-6.753,3.9-6.752h7.693l.048.083,3.9,6.752,0,.007Zm12.078-7.2-.047.083h-7.315l-.048-.083-3.9-6.752v0l3.849-6.666h7.51l3.848,6.666v0Zm12.464,7.2h-7.8l-3.71-6.426.141-.244,3.9-6.752.048-.083h7.419l3.9,6.752Zm12.532,7.1h-7.8l-3.9-6.752,3.9-6.752h7.419l.047.083,3.9,6.752.141.245Zm12.078-7.2-.048.083h-7.315l-.048-.083-3.9-6.752v0l3.849-6.665h7.51l3.849,6.665v0Zm12.464,7.2h-7.8l-3.846-6.661,0-.008,3.9-6.752.048-.083h7.693l3.9,6.752Z" transform="translate(2178.109 2460.188)"/></g></svg>